<?xml version="1.0" encoding="UTF-8" standalone="no"?>
<!-- Created with Inkscape (http://www.inkscape.org/) -->

<svg
   width="4.9240255mm"
   height="6.3499999mm"
   viewBox="0 0 4.9240255 6.35"
   version="1.1"
   id="svg1"
   xmlns="http://www.w3.org/2000/svg"
   xmlns:svg="http://www.w3.org/2000/svg">
  <defs
     id="defs1" />
  <path
     id="path2"
     style="stroke-width:0.0577802"
     d="M 4.9215554,0 4.8967279,0.00663837 V 0.00639939 L 4.8226436,0.02565066 4.751082,0.0438398 h 7.833e-4 L 3.8210595,0.28554288 V 1.5281264 C 3.7678195,1.5040954 3.6925407,1.5071494 3.6185627,1.5360964 3.4907076,1.5864154 3.4040503,1.698285 3.4248683,1.7860045 3.4457123,1.8737635 3.5662656,1.9041675 3.6941472,1.8538485 3.8221349,1.8035259 3.9088453,1.6915764 3.8879478,1.6038171 V 0.48140138 L 4.8541493,0.23051079 V 1.1794393 c -0.05324,-0.024031 -0.1285188,-0.020977 -0.2024968,0.00797 -0.127855,0.050319 -0.2146053,0.1621754 -0.1938006,0.2499214 0.020844,0.087759 0.141384,0.118163 0.2692656,0.067844 C 4.8551053,1.4548521 4.9418157,1.3429026 4.9209181,1.2551433 V 0.04293698 0.02023375 Z M 2.0160865,1.1623389 C 1.3614635,1.1623787 0.83080539,1.6930766 0.83083194,2.3476997 0.83080539,3.002336 1.3614502,3.5330339 2.0160865,3.5330737 2.6707626,3.5331003 3.2014738,3.0023758 3.2014473,2.3476997 3.2014738,1.6930368 2.6707494,1.1623123 2.0160865,1.1623389 Z m 0,2.8216794 C 0.90267239,3.9840448 6.6383708e-5,4.5146763 0,5.1692595 V 6.35 h 4.0301815 l 0.00266,-1.1810989 C 4.0327704,4.5142913 3.1300981,3.9836465 2.0166308,3.9836598 Z" />
</svg>
