<?xml version="1.0" encoding="UTF-8" standalone="no"?>
<!-- Created with Inkscape (http://www.inkscape.org/) -->

<svg
   width="3.7087314mm"
   height="6.3499999mm"
   viewBox="0 0 3.7087314 6.3500001"
   version="1.1"
   id="svg1"
   xmlns="http://www.w3.org/2000/svg"
   xmlns:svg="http://www.w3.org/2000/svg">
  <defs
     id="defs1" />
  <path
     id="path2"
     style="stroke-width:0.0435199"
     d="M 3.7069,0 3.6882,0.005 v -1.8e-4 l -0.0558,0.0145 -0.0539,0.0137 h 5.9e-4 L 2.87801,0.21507 V 1.15098 A 0.12089525,0.18877853 62.730118 0 0 2.72549,1.15698 0.12089525,0.18877853 62.730118 0 0 2.5796,1.34521 0.12089525,0.18877853 62.730118 0 0 2.78242,1.39631 0.12089525,0.18877853 62.730118 0 0 2.92839,1.20799 V 0.36259 L 3.65613,0.17362 V 0.88835 A 0.12089525,0.18877853 62.730118 0 0 3.50361,0.89435 0.12089525,0.18877853 62.730118 0 0 3.35764,1.08259 0.12089525,0.18877853 62.730118 0 0 3.56045,1.13369 0.12089525,0.18877853 62.730118 0 0 3.70642,0.94537 V 0.03234 0.01524 Z M 1.51851,0.87547 A 0.89277688,0.89277688 0 0 0 0.62578,1.76828 0.89277688,0.89277688 0 0 0 1.51851,2.6611 0.89277688,0.89277688 0 0 0 2.41132,1.76828 0.89277688,0.89277688 0 0 0 1.51851,0.87547 Z m 0,2.12528 A 1.5185694,0.89277688 0 0 0 0,3.89347 V 6.35 H 3.03711 V 3.89347 A 1.5185694,0.89277688 0 0 0 1.51851,3.00075 Z" />
</svg>
