<?xml version="1.0" encoding="UTF-8" standalone="no"?>
<!-- Created with Inkscape (http://www.inkscape.org/) -->

<svg
   width="6.3499999mm"
   height="6.3499999mm"
   viewBox="0 0 6.3499999 6.3499999"
   version="1.1"
   id="svg1"
   xmlns="http://www.w3.org/2000/svg"
   xmlns:svg="http://www.w3.org/2000/svg">
  <defs
     id="defs1" />
  <path
     id="rect2-1"
     style="fill:#000000;stroke-width:0.00572836"
     d="M 0,0 V 0.85266 1.70584 L 1.4335,0.85266 Z M 1.78904,0.49919 V 1.21698 H 2.6572 V 0.49919 Z m 1.41283,0 V 1.21698 H 4.79971 V 0.49919 Z m 2.14251,0 V 1.21698 H 6.35 V 0.49919 Z M 0,2.2102 V 2.92799 H 0.5147 V 2.2102 Z m 1.05885,0 V 2.92799 H 2.6572 V 2.2102 Z m 2.14302,0 V 2.92799 H 4.79971 V 2.2102 Z m 2.14251,0 V 2.92799 H 6.35 V 2.2102 Z M 0,3.92121 V 4.63899 H 0.5147 V 3.92121 Z m 1.05885,0 V 4.63899 H 2.6572 V 3.92121 Z m 2.14302,0 V 4.63899 H 4.79971 V 3.92121 Z m 2.14251,0 V 4.63899 H 6.35 V 3.92121 Z M 0,5.63221 V 6.35 H 0.5147 V 5.63221 Z m 1.05885,0 V 6.35 H 2.6572 V 5.63221 Z m 2.14302,0 V 6.35 H 4.79971 V 5.63221 Z m 2.14251,0 V 6.35 H 6.35 V 5.63221 Z" />
</svg>
