<?xml version="1.0" encoding="UTF-8" standalone="no"?>
<!-- Created with Inkscape (http://www.inkscape.org/) -->

<svg
   width="6.3499999mm"
   height="6.3499999mm"
   viewBox="0 0 6.3499999 6.3499999"
   version="1.1"
   id="svg1"
   sodipodi:docname="previous.svg"
   inkscape:export-filename="..\frontend\static\icons\previous.svg"
   inkscape:export-xdpi="96"
   inkscape:export-ydpi="96"
   inkscape:version="1.4.3 (0d15f75, 2025-12-25)"
   xmlns:inkscape="http://www.inkscape.org/namespaces/inkscape"
   xmlns:sodipodi="http://sodipodi.sourceforge.net/DTD/sodipodi-0.dtd"
   xmlns="http://www.w3.org/2000/svg"
   xmlns:svg="http://www.w3.org/2000/svg">
  <sodipodi:namedview
     id="namedview1"
     pagecolor="#ffffff"
     bordercolor="#000000"
     borderopacity="0.25"
     inkscape:showpageshadow="2"
     inkscape:pageopacity="0.0"
     inkscape:pagecheckerboard="0"
     inkscape:deskcolor="#d1d1d1"
     inkscape:document-units="mm"
     inkscape:zoom="21.875"
     inkscape:cx="11.954286"
     inkscape:cy="12.045714"
     inkscape:window-width="1366"
     inkscape:window-height="705"
     inkscape:window-x="-8"
     inkscape:window-y="-8"
     inkscape:window-maximized="1"
     inkscape:current-layer="svg1" />
  <defs
     id="defs1">
    <inkscape:path-effect
       effect="fillet_chamfer"
       id="path-effect3"
       is_visible="true"
       lpeversion="1"
       nodesatellites_param="F,0,0,1,0,0,0,1 @ F,0,0,1,0,1.0862273,0,1 @ F,0,0,1,0,0.71966666,0,1 @ F,0,0,1,0,0,0,1 @ F,0,0,1,0,0,0,1 @ F,0,0,1,0,1.0092852,0,1 @ F,0,0,1,0,0.76804761,0,1 @ F,0,0,1,0,0,0,1"
       radius="0"
       unit="px"
       method="auto"
       mode="F"
       chamfer_steps="1"
       flexible="false"
       use_knot_distance="true"
       apply_no_radius="true"
       apply_with_radius="true"
       only_selected="false"
       hide_knots="false" />
    <inkscape:path-effect
       effect="fillet_chamfer"
       id="path-effect2"
       is_visible="true"
       lpeversion="1"
       nodesatellites_param="F,0,0,1,0,0,0,1 @ F,0,0,1,0,1.0006297,0,1 @ F,0,0,1,0,0.68700952,0,1 @ F,0,0,1,0,0,0,1 @ F,0,0,1,0,0,0,1 @ F,0,0,1,0,0.86913241,0,1 @ F,0,0,1,0,0.66765713,0,1 @ F,0,0,1,0,0,0,1"
       radius="0"
       unit="px"
       method="auto"
       mode="F"
       chamfer_steps="1"
       flexible="false"
       use_knot_distance="true"
       apply_no_radius="true"
       apply_with_radius="true"
       only_selected="false"
       hide_knots="false" />
  </defs>
  <path
     id="rect2"
     style="stroke-width:0.263832"
     d="M 5.5304118,0.81131995 V 1.190625 H 4.8456991 A 1.6289362,1.6196558 0 0 0 3.3873901,2.0892782 L 3.175,2.5135417 2.9972331,2.1580078 A 1.7531171,1.7431291 0 0 0 1.4273031,1.190625 H -4.7683716e-8 V 1.7197917 H 1.3487549 A 1.2395908,1.2325285 0 0 1 2.4587646,2.4034709 L 2.8442708,3.175 2.4587646,3.9465291 A 1.2395908,1.2325285 0 0 1 1.3487549,4.6302083 H -4.7683716e-8 V 5.159375 H 1.4273031 a 1.7531171,1.7431291 0 0 0 1.56993,-0.9673828 L 3.175,3.8364583 3.3873901,4.2607218 A 1.6289362,1.6196558 0 0 0 4.8456991,5.159375 H 5.5304118 V 5.53868 L 6.35,4.8947917 5.5304118,4.2509033 v 0.379305 H 4.953186 A 1.1615063,1.1548889 0 0 1 3.9129395,3.9894206 L 3.5057292,3.175 3.9129395,2.3605794 A 1.1615063,1.1548889 0 0 1 4.953186,1.7197917 h 0.5772258 v 0.379305 L 6.35,1.4552083 Z" />
</svg>
