<?xml version="1.0" encoding="UTF-8" standalone="no"?>
<!-- Created with Inkscape (http://www.inkscape.org/) -->

<svg
   width="6.3499999mm"
   height="4.7273598mm"
   viewBox="0 0 6.3499999 4.7273598"
   version="1.1"
   id="svg1"
   xmlns="http://www.w3.org/2000/svg"
   xmlns:svg="http://www.w3.org/2000/svg">
  <defs
     id="defs1" />
  <path
     id="rect2"
     style="stroke-width:0.263832"
     d="M 5.5304118,1.1017775e-7 V 0.37930516 H 4.8456991 A 1.6289362,1.6196558 0 0 0 3.3873901,1.2779584 L 3.175,1.7022219 2.9972331,1.346688 A 1.7531171,1.7431291 0 0 0 1.4273031,0.37930516 H 0 v 0.5291667 H 1.3487549 A 1.2395908,1.2325285 0 0 1 2.4587646,1.5921511 L 2.8442708,2.3636802 2.4587646,3.1352093 A 1.2395908,1.2325285 0 0 1 1.3487549,3.8188885 H 0 v 0.5291667 h 1.4273031 a 1.7531171,1.7431291 0 0 0 1.56993,-0.9673828 L 3.175,3.0251385 3.3873901,3.449402 a 1.6289362,1.6196558 0 0 0 1.458309,0.8986532 h 0.6847127 v 0.379305 L 6.35,4.0834719 5.5304118,3.4395835 v 0.379305 H 4.953186 A 1.1615063,1.1548889 0 0 1 3.9129395,3.1781008 L 3.5057292,2.3636802 3.9129395,1.5492596 A 1.1615063,1.1548889 0 0 1 4.953186,0.90847186 H 5.5304118 V 1.2877769 L 6.35,0.64388846 Z" />
</svg>
