<?xml version="1.0" encoding="UTF-8" standalone="no"?>
<!-- Created with Inkscape (http://www.inkscape.org/) -->

<svg
   width="24.431761mm"
   height="24mm"
   viewBox="0 0 24.431761 24"
   version="1.1"
   id="svg1"
   inkscape:version="1.4.3 (0d15f75, 2025-12-25)"
   sodipodi:docname="settings_save.svg"
   xmlns:inkscape="http://www.inkscape.org/namespaces/inkscape"
   xmlns:sodipodi="http://sodipodi.sourceforge.net/DTD/sodipodi-0.dtd"
   xmlns="http://www.w3.org/2000/svg"
   xmlns:svg="http://www.w3.org/2000/svg">
  <sodipodi:namedview
     id="namedview1"
     pagecolor="#ffffff"
     bordercolor="#000000"
     borderopacity="0.25"
     inkscape:showpageshadow="2"
     inkscape:pageopacity="0.0"
     inkscape:pagecheckerboard="0"
     inkscape:deskcolor="#d1d1d1"
     inkscape:document-units="mm"
     inkscape:zoom="3.7415825"
     inkscape:cx="32.606524"
     inkscape:cy="43.965354"
     inkscape:window-width="1366"
     inkscape:window-height="705"
     inkscape:window-x="-8"
     inkscape:window-y="-8"
     inkscape:window-maximized="1"
     inkscape:current-layer="svg1" />
  <defs
     id="defs1" />
  <path
     id="path3"
     style="fill:#000000;stroke-width:0.129763"
     d="M 14.271689,0.00407411 C 12.862952,0.10768585 14.193567,2.1598427 10.494261,2.8563593 5.7591521,3.7479036 7.893337,-0.42638551 4.2383791,2.7132692 0.58342844,5.8529241 5.0314684,4.3724348 3.4360072,8.9189375 1.8405536,13.465433 -0.70722016,9.5303769 0.18432412,14.265485 1.0758608,19.000601 2.0179952,14.407973 5.15765,18.062931 c 3.1396546,3.654958 -1.5423341,3.893801 3.0041682,5.489254 4.5465028,1.595461 1.0405967,-1.516678 5.7757058,-2.408221 4.735108,-0.891545 2.600922,3.282744 6.255881,0.143089 3.65495,-3.139654 -0.793504,-1.659541 0.801958,-6.206036 C 22.590817,10.534514 25.139005,14.469946 24.24746,9.73483 23.355923,4.9997213 22.413382,9.5919733 19.27372,5.9370225 16.134065,2.2820643 20.816054,2.0432221 16.269552,0.44776844 15.275006,0.09875731 14.666141,-0.02493989 14.271689,0.00407411 Z m -2.29578,7.63596629 a 4.3666261,4.3666261 0 0 1 4.599893,4.1199576 4.3666261,4.3666261 0 0 1 -4.119927,4.600285 4.3666261,4.3666261 0 0 1 -4.5999235,-4.120342 4.3666261,4.3666261 0 0 1 4.1199575,-4.5999006 z m 0.05894,1.0705594 A 3.2943451,3.2943451 0 0 0 8.9265359,12.181017 3.2943451,3.2943451 0 0 0 12.396945,15.289332 3.2943451,3.2943451 0 0 0 15.505268,11.818921 3.2943451,3.2943451 0 0 0 12.03485,8.7105998 Z" />
</svg>
