<?xml version="1.0" encoding="UTF-8" standalone="no"?>
<!-- Created with Inkscape (http://www.inkscape.org/) -->

<svg
   width="6.3499999mm"
   height="4.7273602mm"
   viewBox="0 0 6.3499999 4.7273602"
   version="1.1"
   id="svg1"
   xmlns="http://www.w3.org/2000/svg"
   xmlns:svg="http://www.w3.org/2000/svg">
  <defs
     id="defs1" />
  <path
     id="rect2"
     style="fill:#000000;stroke-width:0.263832"
     d="M 5.5304118,0 V 0.37930505 H 4.8456991 A 1.6289362,1.6196558 0 0 0 3.3873901,1.2779582 L 3.175,1.7022218 2.9972331,1.3466878 A 1.7531171,1.7431291 0 0 0 1.4273031,0.37930505 H 0 v 0.5291667 H 1.3487549 A 1.2395908,1.2325285 0 0 1 2.4587646,1.5921509 L 2.8442708,2.36368 2.4587646,3.1352091 A 1.2395908,1.2325285 0 0 1 1.3487549,3.8188883 H 0 V 4.348055 h 1.4273031 a 1.7531171,1.7431291 0 0 0 1.56993,-0.9673828 L 3.175,3.0251383 3.3873901,3.4494018 A 1.6289362,1.6196558 0 0 0 4.8456991,4.348055 H 5.5304118 V 4.7273601 L 6.35,4.0834717 5.5304118,3.4395834 V 3.8188883 H 4.953186 A 1.1615063,1.1548889 0 0 1 3.9129395,3.1781006 L 3.5057292,2.36368 3.9129395,1.5492594 A 1.1615063,1.1548889 0 0 1 4.953186,0.90847175 H 5.5304118 V 1.2877767 L 6.35,0.64388835 Z" />
</svg>
